<?xml version="1.0" encoding="utf-8"?>
<!-- Generator: Adobe Illustrator 26.4.0, SVG Export Plug-In . SVG Version: 6.00 Build 0)  -->
<svg version="1.1" id="Layer_1" xmlns="http://www.w3.org/2000/svg" xmlns:xlink="http://www.w3.org/1999/xlink" x="0px" y="0px"
	 viewBox="0 0 1200 1200" style="enable-background:new 0 0 1200 1200;" xml:space="preserve">
<style type="text/css">
	.st0{fill:#FFFFFF;}
</style>
<g>
	<path class="st0" d="M96,231.6c29.04,29.04,58.08,58.08,87.12,87.12l459.84,459.84c72.72,72.72,145.44,145.44,218.4,218.4
		c35.28,35.28,69.84,71.04,105.6,105.6c0.48,0.48,0.96,0.96,1.44,1.44c35.52,35.52,100.8,38.16,135.84,0
		c35.28-38.4,37.92-97.92,0-135.84c-29.04-29.04-58.08-58.08-87.12-87.12L557.28,421.2c-72.72-72.72-145.44-145.44-218.4-218.4
		c-35.28-35.28-69.84-71.04-105.6-105.6c-0.48-0.48-0.96-0.96-1.44-1.44c-35.52-35.52-100.8-38.16-135.84,0
		C60.72,134.16,58.08,193.68,96,231.6L96,231.6z"/>
	<path class="st0" d="M968.4,96c-29.04,29.04-58.08,58.08-87.12,87.12L421.44,642.96C348.72,715.68,276,788.4,203.04,861.36
		c-35.28,35.28-71.04,69.84-105.6,105.6c-0.48,0.48-0.96,0.96-1.44,1.44c-35.52,35.52-38.16,100.8,0,135.84
		c38.4,35.28,97.92,37.92,135.84,0c29.04-29.04,58.08-58.08,87.12-87.12L778.8,557.28c72.72-72.72,145.44-145.44,218.4-218.4
		c35.28-35.28,71.04-69.84,105.6-105.6c0.48-0.48,0.96-0.96,1.44-1.44c35.52-35.52,38.16-100.8,0-135.84
		C1065.84,60.72,1006.32,58.08,968.4,96L968.4,96z"/>
</g>
</svg>
