<?xml version="1.0" encoding="utf-8"?>
<!-- Generator: Adobe Illustrator 23.0.4, SVG Export Plug-In . SVG Version: 6.00 Build 0)  -->
<svg version="1.1" xmlns="http://www.w3.org/2000/svg" xmlns:xlink="http://www.w3.org/1999/xlink" x="0px" y="0px"
	 viewBox="0 0 100 58" style="enable-background:new 0 0 100 58;" xml:space="preserve">
<style type="text/css">
	.st0{display:none;}
	.st1{display:inline;fill-rule:evenodd;clip-rule:evenodd;}
	.st2{fill:#FFFFFF;}
</style>
<g id="Layer_3" class="st0">
	<rect class="st1" width="100" height="58"/>
</g>
<g id="Layer_1" class="st0">
	<path class="st1" d="M94.45,47.18c-42.62,5.57-73.04,12.26-73.49-15.2c0,0,0.93-10.64,13.98-11.31c0,0,0.44-9.45,10.41-10.52
		c5.36-0.58,11.45,4.94,12.11,10.75c0,0,13.19-2.44,13.76,10.42c0.2,4.48-0.81,12.1-13.53,11.77c0,0-7.36-1-8.36-12.38
		c-2.07,22.03,29.78,20.75,30.24,0.74c0.2-8.65-5.34-17.55-17.82-15.88C54.91-1.64,36.7-0.65,29.92,15.31
		c-9.69,0-17.1,7.46-16.99,17.2C13.3,63.86,56.93,54.41,94.45,47.18z"/>
</g>
<g id="Layer_2">
	<g>
		<path class="st2" d="M1.33,55.22V39.66h5.18v1.74H3.4v5.19h2.08v1.72H3.4v6.92H1.33z"/>
		<path class="st2" d="M8.59,55.22V39.66h2.07v13.83h3.11v1.74H8.59z"/>
		<path class="st2" d="M15.84,55.22V43.11c0-0.95,0.2-1.76,0.61-2.44c0.41-0.68,0.89-1.02,1.46-1.02h2.08
			c0.57,0,1.05,0.34,1.46,1.02c0.41,0.68,0.61,1.49,0.61,2.43v12.11h-2.07V48.3h-2.08v6.92H15.84z M17.91,46.58h2.08v-3.47
			c0-0.47-0.1-0.87-0.31-1.21c-0.21-0.34-0.45-0.51-0.73-0.51c-0.28,0-0.53,0.17-0.73,0.51c-0.2,0.34-0.31,0.74-0.31,1.21V46.58z"/>
		<path class="st2" d="M25.15,55.22V41.39h-2.07v-1.74h6.22v1.74h-2.07v13.83H25.15z"/>
	</g>
	<g>
		<path class="st2" d="M32.94,2.04h2.85v47.2h1.43c0.4,0,0.74-0.58,1.02-1.74c0.28-1.16,0.42-2.54,0.42-4.12V2.04h2.85v47.2h1.43
			c0.39,0,0.72-0.58,1-1.74c0.28-1.16,0.42-2.54,0.42-4.12V2.04h2.87v32.95c0,5.5-0.48,10.23-1.44,14.21
			c-0.96,3.97-2.11,5.96-3.45,5.96h-3.69v-1.88c-0.55,1.25-1.23,1.88-2.03,1.88h-3.69V2.04z"/>
		<path class="st2" d="M52.94,2.04h2.87c0.78,0,1.45,1.16,2.01,3.49c0.56,2.32,0.84,5.09,0.84,8.3v29.55c0,3.19-0.28,5.95-0.84,8.29
			c-0.56,2.33-1.23,3.5-2.01,3.5h-2.87c-0.78,0-1.45-1.16-2.01-3.47c-0.56-2.31-0.84-5.09-0.84-8.31V13.83c0-3.23,0.28-6,0.84-8.31
			C51.49,3.2,52.16,2.04,52.94,2.04z M52.94,13.83v29.55c0,1.59,0.14,2.96,0.42,4.12c0.28,1.16,0.62,1.74,1.02,1.74
			c0.4,0,0.74-0.58,1.02-1.74c0.28-1.16,0.42-2.54,0.42-4.12V13.83c0-1.6-0.14-2.98-0.43-4.14c-0.28-1.15-0.62-1.73-1.01-1.73
			c-0.39,0-0.73,0.58-1.01,1.73C53.08,10.84,52.94,12.22,52.94,13.83z"/>
		<path class="st2" d="M61.51,55.16V2.04h5.72c0.78,0,1.45,1.16,2.01,3.49c0.56,2.32,0.84,5.09,0.84,8.3v3.21
			c0,2.64-0.22,5.18-0.66,7.62c-0.44,2.44-1.17,3.67-2.2,3.67h1.42c0.39,0,0.73,0.58,1.01,1.74c0.28,1.16,0.42,2.55,0.42,4.18v20.92
			h-2.85V37.45c0-1.62-0.14-3.02-0.43-4.18c-0.28-1.16-0.62-1.74-1.01-1.74h-1.43v23.63H61.51z M64.37,25.67h1.43
			c0.39,0,0.72-0.59,1.01-1.76c0.28-1.17,0.43-2.56,0.43-4.16v-5.92c0-1.6-0.14-2.98-0.43-4.14c-0.28-1.15-0.62-1.73-1.01-1.73
			h-1.43V25.67z"/>
		<path class="st2" d="M72.94,55.16V2.04h0.65l6.11,25.18l6.1-25.18h1.43v53.12h-2.87V22.68L79.35,43.4l-4.98-20.72v32.48H72.94z"/>
	</g>
	<g>
		<path class="st2" d="M90.19,14.42c0-2.62,1.77-4.46,4.25-4.46c2.48,0,4.11,1.84,4.18,4.46c0,2.48-1.63,4.39-4.25,4.39
			C91.89,18.81,90.19,16.9,90.19,14.42z M90.19,39.43c0-2.62,1.77-4.46,4.25-4.46c2.48,0,4.11,1.84,4.18,4.46
			c0,2.48-1.63,4.39-4.25,4.39C91.89,43.82,90.19,41.91,90.19,39.43z"/>
	</g>
</g>
</svg>
