<?xml version="1.0" encoding="utf-8"?>
<!-- Generator: Adobe Illustrator 23.0.4, SVG Export Plug-In . SVG Version: 6.00 Build 0)  -->
<svg version="1.1" xmlns="http://www.w3.org/2000/svg" xmlns:xlink="http://www.w3.org/1999/xlink" x="0px" y="0px"
	 viewBox="0 0 117.13 58" style="enable-background:new 0 0 117.13 58;" xml:space="preserve">
<style type="text/css">
	.st0{display:none;}
	.st1{display:inline;fill-rule:evenodd;clip-rule:evenodd;}
	.st2{fill:#FFFFFF;}
</style>
<g id="Layer_3" class="st0">
	<rect class="st1" width="117.13" height="58"/>
</g>
<g id="Layer_1">
</g>
<g id="Layer_2">
	<g>
		<path class="st2" d="M20.9,40.39c-0.28,0-0.53,0.17-0.73,0.51c-0.2,0.34-0.31,0.74-0.31,1.21v3.47h2.08v-3.47
			c0-0.47-0.1-0.87-0.31-1.21S21.19,40.39,20.9,40.39z"/>
		<path class="st2" d="M0.96,37.47v17.88h32.72V37.47H0.96z M8.46,40.39H5.36v5.19h2.08v1.72H5.36v6.92H3.29V38.66h5.18V40.39z
			 M15.72,54.22h-5.18V38.66h2.07v13.83h3.11V54.22z M24.01,54.22h-2.07V47.3h-2.08v6.92H17.8V42.11c0-0.95,0.2-1.76,0.61-2.44
			s0.89-1.02,1.46-1.02h2.08c0.57,0,1.05,0.34,1.46,1.02c0.41,0.68,0.61,1.49,0.61,2.43V54.22z M31.26,40.39h-2.07v13.83h-2.08
			V40.39h-2.07v-1.74h6.22V40.39z"/>
	</g>
	<g>
		<path class="st2" d="M36.98,2.04h3.6v47.2h1.81c0.5,0,0.93-0.58,1.28-1.74c0.35-1.16,0.53-2.54,0.53-4.12V2.04h3.6v47.2h1.81
			c0.49,0,0.91-0.58,1.26-1.74c0.35-1.16,0.53-2.54,0.53-4.12V2.04h3.62v32.95c0,5.5-0.6,10.23-1.81,14.21
			c-1.21,3.97-2.66,5.96-4.35,5.96H44.2v-1.88c-0.69,1.25-1.55,1.88-2.56,1.88h-4.66V2.04z"/>
		<path class="st2" d="M62.22,2.04h3.62c0.99,0,1.83,1.16,2.54,3.49c0.71,2.32,1.06,5.09,1.06,8.3v29.55c0,3.19-0.35,5.95-1.06,8.29
			c-0.71,2.33-1.55,3.5-2.54,3.5h-3.62c-0.99,0-1.83-1.16-2.54-3.47c-0.71-2.31-1.06-5.09-1.06-8.31V13.83c0-3.23,0.35-6,1.06-8.31
			C60.38,3.2,61.23,2.04,62.22,2.04z M62.22,13.83v29.55c0,1.59,0.18,2.96,0.53,4.12c0.35,1.16,0.78,1.74,1.28,1.74
			c0.5,0,0.93-0.58,1.28-1.74c0.35-1.16,0.53-2.54,0.53-4.12V13.83c0-1.6-0.18-2.98-0.54-4.14s-0.78-1.73-1.27-1.73
			c-0.5,0-0.92,0.58-1.28,1.73C62.39,10.84,62.22,12.22,62.22,13.83z"/>
		<path class="st2" d="M73.03,55.16V2.04h7.22c0.99,0,1.83,1.16,2.54,3.49c0.71,2.32,1.06,5.09,1.06,8.3v3.21
			c0,2.64-0.28,5.18-0.83,7.62c-0.55,2.44-1.48,3.67-2.77,3.67h1.79c0.5,0,0.92,0.58,1.28,1.74c0.36,1.16,0.53,2.55,0.53,4.18v20.92
			h-3.6V37.45c0-1.62-0.18-3.02-0.54-4.18c-0.36-1.16-0.78-1.74-1.27-1.74h-1.81v23.63H73.03z M76.63,25.67h1.81
			c0.49,0,0.91-0.59,1.27-1.76c0.36-1.17,0.54-2.56,0.54-4.16v-5.92c0-1.6-0.18-2.98-0.54-4.14s-0.78-1.73-1.27-1.73h-1.81V25.67z"
			/>
		<path class="st2" d="M87.45,55.16V2.04h0.82l7.71,25.18l7.7-25.18h1.81v53.12h-3.62V22.68L95.54,43.4l-6.28-20.72v32.48H87.45z"/>
	</g>
	<g>
		<path class="st2" d="M108.15,14.42c0-2.62,1.77-4.46,4.25-4.46c2.48,0,4.11,1.84,4.18,4.46c0,2.48-1.63,4.39-4.25,4.39
			C109.85,18.81,108.15,16.9,108.15,14.42z M108.15,39.43c0-2.62,1.77-4.46,4.25-4.46c2.48,0,4.11,1.84,4.18,4.46
			c0,2.48-1.63,4.39-4.25,4.39C109.85,43.82,108.15,41.91,108.15,39.43z"/>
	</g>
</g>
</svg>
