<?xml version="1.0" encoding="utf-8"?>
<!-- Generator: Adobe Illustrator 26.4.0, SVG Export Plug-In . SVG Version: 6.00 Build 0)  -->
<svg version="1.1" id="Layer_1" xmlns="http://www.w3.org/2000/svg" xmlns:xlink="http://www.w3.org/1999/xlink" x="0px" y="0px"
	 viewBox="0 0 1200 1200" style="enable-background:new 0 0 1200 1200;" xml:space="preserve">
<style type="text/css">
	.st0{fill:#FFFFFF;}
</style>
<path class="st0" d="M327.95,343.06c-25.04,0-45.34,20.3-45.34,45.34s20.3,45.34,45.34,45.34h544.11c25.04,0,45.34-20.3,45.34-45.34
	s-20.3-45.34-45.34-45.34H327.95z M327.95,554.66c-25.04,0-45.34,20.3-45.34,45.34s20.3,45.34,45.34,45.34h544.11
	c25.04,0,45.34-20.3,45.34-45.34s-20.3-45.34-45.34-45.34H327.95z M327.95,766.26c-25.04,0-45.34,20.3-45.34,45.34
	s20.3,45.34,45.34,45.34h544.11c25.04,0,45.34-20.3,45.34-45.34s-20.3-45.34-45.34-45.34H327.95z"/>
</svg>
